<svg xmlns="http://www.w3.org/2000/svg" xmlns:xlink="http://www.w3.org/1999/xlink" version="1.1" width="256" height="256" viewBox="0 0 256 256" xml:space="preserve">

<defs>
</defs>
<g style="stroke: none; stroke-width: 0; stroke-dasharray: none; stroke-linecap: butt; stroke-linejoin: miter; stroke-miterlimit: 10; fill: none; fill-rule: nonzero; opacity: 1;" transform="translate(1.4065934065934016 1.4065934065934016) scale(2.81 2.81)" >
	<path d="M 81.683 82.884 H 24.198 c -4.586 0 -8.317 -3.731 -8.317 -8.317 V 35.468 c 0 -4.586 3.731 -8.317 8.317 -8.317 h 57.484 c 4.586 0 8.317 3.731 8.317 8.317 v 39.098 C 90 79.152 86.269 82.884 81.683 82.884 z M 24.198 31.151 c -2.38 0 -4.317 1.937 -4.317 4.317 v 39.098 c 0 2.381 1.937 4.317 4.317 4.317 h 57.484 c 2.381 0 4.317 -1.937 4.317 -4.317 V 35.468 c 0 -2.38 -1.937 -4.317 -4.317 -4.317 H 24.198 z" style="stroke: none; stroke-width: 1; stroke-dasharray: none; stroke-linecap: butt; stroke-linejoin: miter; stroke-miterlimit: 10; fill: rgb(50,50,50); fill-rule: nonzero; opacity: 1;" transform=" matrix(1 0 0 1 0 0) " stroke-linecap="round" />
	<path d="M 70.876 22.527 l -1.166 -10.294 c -0.358 -3.164 -3.214 -5.438 -6.377 -5.08 L 5.117 13.747 c -3.164 0.358 -5.438 3.214 -5.08 6.377 L 4.561 60.07 c 0.358 3.164 3.214 5.438 6.377 5.08 l 0.319 0.037 v -32.39 c 0 -5.672 4.598 -10.27 10.27 -10.27 L 70.876 22.527 z" style="stroke: none; stroke-width: 1; stroke-dasharray: none; stroke-linecap: butt; stroke-linejoin: miter; stroke-miterlimit: 10; fill: rgb(50,50,50); fill-rule: nonzero; opacity: 1;" transform=" matrix(1 0 0 1 0 0) " stroke-linecap="round" />
	<path d="M 88 44.865 L 50.956 62.118 c -1.723 0.802 -3.77 0.339 -4.979 -1.127 l -2.834 -3.436 c -1.228 -1.489 -3.316 -1.941 -5.05 -1.093 l -20.213 9.882 v 8.221 c 0 3.489 2.828 6.317 6.317 6.317 h 57.484 c 3.489 0 6.317 -2.828 6.317 -6.317 V 44.865 z" style="stroke: none; stroke-width: 1; stroke-dasharray: none; stroke-linecap: butt; stroke-linejoin: miter; stroke-miterlimit: 10; fill: rgb(50,50,50); fill-rule: nonzero; opacity: 1;" transform=" matrix(1 0 0 1 0 0) " stroke-linecap="round" />
	<circle cx="51.92" cy="45.22" r="7" style="stroke: none; stroke-width: 1; stroke-dasharray: none; stroke-linecap: butt; stroke-linejoin: miter; stroke-miterlimit: 10; fill: rgb(50,50,50); fill-rule: nonzero; opacity: 1;" transform="  matrix(1 0 0 1 0 0) "/>
</g>
</svg>